<?xml version="1.0" encoding="iso-8859-1"?>
<!-- Uploaded to: SVG Repo, www.svgrepo.com, Generator: SVG Repo Mixer Tools -->
<!DOCTYPE svg PUBLIC "-//W3C//DTD SVG 1.1//EN" "http://www.w3.org/Graphics/SVG/1.1/DTD/svg11.dtd">
<svg fill="#000000" version="1.1" id="Capa_1" xmlns="http://www.w3.org/2000/svg" xmlns:xlink="http://www.w3.org/1999/xlink" 
	 width="800px" height="800px" viewBox="0 0 45.405 45.404"
	 xml:space="preserve">
<g>
	<g>
		<path d="M39.686,26.021c-0.137-0.285-0.426-0.465-0.742-0.467c-0.315,0-0.604,0.18-0.743,0.465
			c-1.808,3.723-5.105,5.336-7.438,6.03c-0.345,0.103-0.583,0.416-0.59,0.775c-0.007,0.358,0.22,0.682,0.561,0.797
			c1.646,0.555,3.027,0.812,4.112,0.923c-0.378,0.609-0.938,1.336-1.768,2.159c-2.154,2.137-9.46,5.075-14.382,4.663
			c-1.065-0.09-2.47-0.385-3.115-1.284c-0.682-0.949-0.891-1.883-0.661-2.937c0.454-2.072,2.481-4.172,4.411-5.732
			c0.765,0.761,1.447,1.439,1.989,1.979c0.741,0.738,1.939,0.737,2.68,0c3.676-3.658,13.658-13.594,13.86-13.795
			c2.274-2.275,3.309-5.315,3.121-8.293c-0.161,0.112-0.331,0.209-0.518,0.27c-0.7,0.229-1.396,0.344-2.068,0.344
			c-3.875,0-5.933-3.67-6.537-5.839c-0.295-1.06,0.32-2.158,1.377-2.46c0.836-0.239,1.57-0.617,2.227-1.052
			c-4.084-2.265-9.325-1.679-12.802,1.77c-3.477-3.448-8.716-4.034-12.801-1.77c0.656,0.435,1.39,0.813,2.227,1.053
			c1.057,0.302,1.672,1.401,1.376,2.46c-0.604,2.168-2.661,5.838-6.536,5.838c-0.673,0-1.369-0.115-2.068-0.344
			c-0.187-0.061-0.357-0.157-0.518-0.27c-0.186,2.978,0.846,6.018,3.119,8.293c0.142,0.139,4.871,4.846,9.017,8.973
			c-2.271,1.893-4.774,4.591-5.461,7.713c-0.473,2.15-0.018,4.271,1.316,6.132c1.233,1.718,3.262,2.706,6.031,2.938
			c0.411,0.033,0.833,0.051,1.264,0.051c5.844,0,13.415-3.029,16.269-5.86c1.233-1.224,2.063-2.353,2.623-3.351
			c0.765,1.358,1.44,2.795,1.94,3.938c0.145,0.331,0.487,0.529,0.847,0.489c0.358-0.04,0.649-0.31,0.719-0.663
			C43.127,34.268,40.965,28.678,39.686,26.021z"/>
		<path d="M5.479,9.674C6,9.844,6.482,9.919,6.927,9.919c3.39,0,4.61-4.375,4.61-4.375C8.189,4.587,6.087,2.04,5.029,0.381
			C4.876,0.142,4.613,0,4.334,0C4.296,0,4.257,0.002,4.219,0.008C3.9,0.053,3.635,0.279,3.543,0.589
			C1.806,6.409,5.479,9.674,5.479,9.674z"/>
		<path d="M38.397,9.919c0.444,0,0.926-0.075,1.447-0.245c0,0,3.672-3.266,1.936-9.084c-0.092-0.311-0.355-0.537-0.676-0.581
			C41.065,0.003,41.026,0,40.988,0c-0.277,0-0.54,0.143-0.692,0.381c-1.06,1.659-3.16,4.205-6.509,5.162
			C33.787,5.543,35.007,9.919,38.397,9.919z"/>
	</g>
</g>
</svg>