<svg xmlns="http://www.w3.org/2000/svg" xmlns:xlink="http://www.w3.org/1999/xlink" version="1.1" width="256" height="256" viewBox="0 0 256 256" xml:space="preserve">
<g style="stroke: none; stroke-width: 0; stroke-dasharray: none; stroke-linecap: butt; stroke-linejoin: miter; stroke-miterlimit: 10; fill: none; fill-rule: nonzero; opacity: 1;" transform="translate(1.4065934065934016 1.4065934065934016) scale(2.81 2.81)">
	<path d="M 33.086 25.637 c -2.25 1.39 -2.947 4.341 -1.557 6.591 l 6.662 10.781 c -1.39 -2.25 -4.341 -2.947 -6.591 -1.557 s -2.947 4.341 -1.557 6.591 l 2.896 4.688 c -1.39 -2.25 -4.341 -2.947 -6.591 -1.557 l 0 0 c -2.25 1.39 -2.947 4.341 -1.557 6.591 l 2.896 4.688 c -1.39 -2.25 -4.341 -2.947 -6.591 -1.557 s -2.947 4.341 -1.557 6.591 l 1.561 2.526 l 6.796 10.998 c 4.892 7.917 15.276 10.37 23.193 5.478 l 3.919 -2.421 c 7.917 -4.892 10.37 -15.276 5.478 -23.193 l -6.796 -10.998 L 39.676 27.194 C 38.286 24.944 35.335 24.247 33.086 25.637 z" style="stroke: none; stroke-width: 1; stroke-dasharray: none; stroke-linecap: butt; stroke-linejoin: miter; stroke-miterlimit: 10; fill: rgb(242,210,199); fill-rule: nonzero; opacity: 1;" transform=" matrix(1 0 0 1 0 0) " stroke-linecap="round"/>
	<path d="M 51.71 46.669 l 0.858 1.388 l 4.059 -21.421 c 0.105 -0.555 -0.259 -1.089 -0.814 -1.195 l 0 0 c -4.426 -0.839 -8.695 2.069 -9.533 6.496 l -0.862 4.548 L 51.71 46.669 z" style="stroke: none; stroke-width: 1; stroke-dasharray: none; stroke-linecap: butt; stroke-linejoin: miter; stroke-miterlimit: 10; fill: rgb(242,210,199); fill-rule: nonzero; opacity: 1;" transform=" matrix(1 0 0 1 0 0) " stroke-linecap="round"/>
	<path d="M 42.263 90 c -5.988 0.001 -11.844 -3.006 -15.216 -8.464 l -8.357 -13.524 c -1.678 -2.715 -0.834 -6.29 1.881 -7.967 c 1.232 -0.761 2.64 -1.001 3.967 -0.787 l -0.598 -0.968 c -0.813 -1.315 -1.065 -2.867 -0.709 -4.372 c 0.355 -1.505 1.275 -2.781 2.591 -3.594 c 1.197 -0.739 2.591 -1.016 3.964 -0.791 l -0.595 -0.964 c -1.677 -2.716 -0.833 -6.29 1.881 -7.967 c 1.197 -0.739 2.589 -1.013 3.965 -0.791 l -4.361 -7.057 c -1.678 -2.716 -0.834 -6.29 1.881 -7.967 c 1.316 -0.812 2.87 -1.064 4.373 -0.71 c 1.505 0.355 2.781 1.275 3.594 2.591 l 20.812 33.681 c 2.506 4.056 3.283 8.846 2.188 13.486 c -1.097 4.641 -3.934 8.577 -7.991 11.083 l -3.918 2.422 C 48.701 89.142 45.463 90 42.263 90 z M 23.609 61.182 c -0.679 0 -1.366 0.183 -1.986 0.564 c -1.777 1.099 -2.329 3.438 -1.232 5.215 l 8.357 13.524 c 4.594 7.434 14.381 9.745 21.818 5.153 l 3.918 -2.422 c 3.602 -2.226 6.122 -5.72 7.094 -9.842 c 0.974 -4.12 0.284 -8.374 -1.942 -11.976 l -20.812 -33.68 c -0.532 -0.861 -1.367 -1.463 -2.352 -1.696 c -0.985 -0.231 -2.002 -0.068 -2.862 0.464 c -1.777 1.098 -2.329 3.437 -1.232 5.215 l 6.662 10.781 c 0.291 0.47 0.145 1.087 -0.325 1.377 c -0.471 0.29 -1.087 0.145 -1.377 -0.325 l -0.003 -0.005 c -0.532 -0.858 -1.366 -1.458 -2.349 -1.691 c -0.985 -0.23 -2.002 -0.067 -2.862 0.464 c -1.777 1.098 -2.329 3.437 -1.232 5.215 l 2.893 4.681 c 0.001 0.002 0.003 0.005 0.004 0.007 c 0.291 0.47 0.145 1.086 -0.325 1.376 c -0.47 0.291 -1.087 0.146 -1.377 -0.325 l 0 0 c -0.532 -0.86 -1.367 -1.463 -2.352 -1.695 c -0.986 -0.234 -2.001 -0.068 -2.862 0.464 c -0.861 0.532 -1.463 1.367 -1.696 2.352 c -0.233 0.985 -0.068 2.002 0.464 2.863 l 2.893 4.681 c 0.001 0.002 0.003 0.005 0.004 0.007 c 0.291 0.47 0.145 1.086 -0.325 1.376 c -0.471 0.292 -1.087 0.146 -1.377 -0.325 l -0.001 -0.001 C 26.122 61.82 24.879 61.182 23.609 61.182 z" style="stroke: none; stroke-width: 1; stroke-dasharray: none; stroke-linecap: butt; stroke-linejoin: miter; stroke-miterlimit: 10; fill: rgb(0,0,0); fill-rule: nonzero; opacity: 1;" transform=" matrix(1 0 0 1 0 0) " stroke-linecap="round"/>
	<path d="M 46.266 57.077 c -0.335 0 -0.663 -0.168 -0.852 -0.475 L 37.34 43.535 c -0.291 -0.47 -0.145 -1.087 0.325 -1.377 c 0.471 -0.29 1.087 -0.144 1.377 0.325 l 8.074 13.068 c 0.29 0.47 0.145 1.086 -0.325 1.376 C 46.628 57.029 46.446 57.077 46.266 57.077 z" style="stroke: none; stroke-width: 1; stroke-dasharray: none; stroke-linecap: butt; stroke-linejoin: miter; stroke-miterlimit: 10; fill: rgb(0,0,0); fill-rule: nonzero; opacity: 1;" transform=" matrix(1 0 0 1 0 0) " stroke-linecap="round"/>
	<path d="M 38.119 62.11 c -0.335 0 -0.663 -0.168 -0.852 -0.475 l -5.178 -8.379 c -0.291 -0.47 -0.145 -1.086 0.325 -1.376 c 0.471 -0.291 1.087 -0.146 1.377 0.325 l 5.178 8.379 c 0.291 0.47 0.145 1.086 -0.325 1.376 C 38.479 62.062 38.298 62.11 38.119 62.11 z" style="stroke: none; stroke-width: 1; stroke-dasharray: none; stroke-linecap: butt; stroke-linejoin: miter; stroke-miterlimit: 10; fill: rgb(0,0,0); fill-rule: nonzero; opacity: 1;" transform=" matrix(1 0 0 1 0 0) " stroke-linecap="round"/>
	<path d="M 29.971 67.145 c -0.335 0 -0.663 -0.168 -0.852 -0.475 l -2.281 -3.692 c -0.291 -0.47 -0.145 -1.086 0.325 -1.376 c 0.47 -0.292 1.086 -0.146 1.376 0.325 l 2.281 3.692 c 0.291 0.47 0.145 1.086 -0.325 1.376 C 30.332 67.097 30.15 67.145 29.971 67.145 z" style="stroke: none; stroke-width: 1; stroke-dasharray: none; stroke-linecap: butt; stroke-linejoin: miter; stroke-miterlimit: 10; fill: rgb(0,0,0); fill-rule: nonzero; opacity: 1;" transform=" matrix(1 0 0 1 0 0) " stroke-linecap="round"/>
	<path d="M 52.567 49.056 c -0.343 0 -0.666 -0.176 -0.851 -0.475 l -7.149 -11.571 c -0.131 -0.212 -0.178 -0.466 -0.132 -0.711 l 0.862 -4.548 c 0.456 -2.404 1.819 -4.486 3.841 -5.863 c 2.021 -1.378 4.456 -1.885 6.861 -1.429 c 0.53 0.1 0.99 0.401 1.294 0.848 c 0.305 0.446 0.416 0.984 0.315 1.516 l -4.059 21.42 c -0.077 0.405 -0.395 0.722 -0.801 0.797 C 52.689 49.051 52.628 49.056 52.567 49.056 z M 46.473 36.29 l 5.591 9.05 l 3.579 -18.889 c -1.9 -0.383 -3.801 0.015 -5.379 1.091 c -1.58 1.076 -2.646 2.704 -3.002 4.582 L 46.473 36.29 z" style="stroke: none; stroke-width: 1; stroke-dasharray: none; stroke-linecap: butt; stroke-linejoin: miter; stroke-miterlimit: 10; fill: rgb(0,0,0); fill-rule: nonzero; opacity: 1;" transform=" matrix(1 0 0 1 0 0) " stroke-linecap="round"/>
	<path d="M 53.919 2.796 C 51.874 0.486 48 0.199 45 3.149 c -3 -2.95 -6.873 -2.664 -8.918 -0.353 c -2.176 2.458 -1.262 7.045 1.602 10.711 c 1.452 1.858 5.038 4.884 7.316 6.155 c 2.278 -1.271 5.864 -4.297 7.316 -6.155 C 55.181 9.841 56.095 5.254 53.919 2.796 z" style="stroke: none; stroke-width: 1; stroke-dasharray: none; stroke-linecap: butt; stroke-linejoin: miter; stroke-miterlimit: 10; fill: rgb(235,121,172); fill-rule: nonzero; opacity: 1;" transform=" matrix(1 0 0 1 0 0) " stroke-linecap="round"/>
	<path d="M 15.514 6.853 c -0.06 0 -0.12 -0.015 -0.173 -0.045 c -0.845 -0.471 -2.163 -1.581 -2.711 -2.282 c -1.177 -1.506 -1.411 -3.301 -0.556 -4.267 c 0.413 -0.467 0.993 -0.736 1.632 -0.758 c 0.638 -0.021 1.266 0.205 1.809 0.643 c 0.543 -0.438 1.174 -0.661 1.809 -0.643 c 0.639 0.022 1.219 0.291 1.632 0.758 l 0 0 c 0.855 0.966 0.621 2.76 -0.556 4.267 c -0.548 0.701 -1.865 1.81 -2.711 2.282 C 15.633 6.838 15.574 6.853 15.514 6.853 z M 13.789 0.211 c -0.02 0 -0.039 0 -0.059 0.001 c -0.442 0.015 -0.841 0.199 -1.123 0.518 c -0.617 0.697 -0.366 2.14 0.584 3.357 c 0.458 0.586 1.555 1.523 2.323 1.997 c 0.768 -0.474 1.866 -1.411 2.323 -1.997 c 0.951 -1.216 1.202 -2.66 0.584 -3.357 c -0.282 -0.319 -0.681 -0.503 -1.123 -0.518 c -0.527 -0.018 -1.082 0.216 -1.534 0.662 c -0.138 0.136 -0.361 0.136 -0.499 0 C 14.828 0.445 14.306 0.211 13.789 0.211 z" style="stroke: none; stroke-width: 1; stroke-dasharray: none; stroke-linecap: butt; stroke-linejoin: miter; stroke-miterlimit: 10; fill: rgb(0,0,0); fill-rule: nonzero; opacity: 1;" transform=" matrix(2.81 0 0 2.81 1.4065934065934016 1.4065934065934016) " stroke-linecap="round"/>
	<path d="M 61.046 6.401 c -0.429 0 -0.825 -0.278 -0.956 -0.709 c -0.161 -0.528 0.136 -1.087 0.664 -1.249 l 10.902 -3.326 c 0.53 -0.162 1.088 0.137 1.248 0.665 c 0.161 0.528 -0.136 1.087 -0.664 1.249 L 61.338 6.357 C 61.24 6.387 61.142 6.401 61.046 6.401 z" style="stroke: none; stroke-width: 1; stroke-dasharray: none; stroke-linecap: butt; stroke-linejoin: miter; stroke-miterlimit: 10; fill: rgb(0,0,0); fill-rule: nonzero; opacity: 1;" transform=" matrix(1 0 0 1 0 0) " stroke-linecap="round"/>
	<path d="M 71.948 16.075 c -0.097 0 -0.194 -0.014 -0.292 -0.044 l -10.902 -3.326 c -0.528 -0.161 -0.825 -0.72 -0.664 -1.249 c 0.16 -0.528 0.719 -0.827 1.248 -0.665 l 10.902 3.326 c 0.528 0.161 0.825 0.72 0.664 1.249 C 72.773 15.797 72.377 16.075 71.948 16.075 z" style="stroke: none; stroke-width: 1; stroke-dasharray: none; stroke-linecap: butt; stroke-linejoin: miter; stroke-miterlimit: 10; fill: rgb(0,0,0); fill-rule: nonzero; opacity: 1;" transform=" matrix(1 0 0 1 0 0) " stroke-linecap="round"/>
	<path d="M 28.956 6.401 c -0.097 0 -0.195 -0.014 -0.293 -0.044 L 17.761 3.031 c -0.528 -0.161 -0.826 -0.72 -0.665 -1.249 c 0.161 -0.528 0.718 -0.828 1.249 -0.665 l 10.903 3.326 c 0.528 0.161 0.826 0.72 0.665 1.249 C 29.781 6.123 29.384 6.401 28.956 6.401 z" style="stroke: none; stroke-width: 1; stroke-dasharray: none; stroke-linecap: butt; stroke-linejoin: miter; stroke-miterlimit: 10; fill: rgb(0,0,0); fill-rule: nonzero; opacity: 1;" transform=" matrix(1 0 0 1 0 0) " stroke-linecap="round"/>
	<path d="M 18.052 16.075 c -0.428 0 -0.825 -0.278 -0.956 -0.709 c -0.161 -0.528 0.137 -1.087 0.665 -1.249 l 10.903 -3.326 c 0.53 -0.162 1.087 0.136 1.249 0.665 c 0.161 0.528 -0.137 1.087 -0.665 1.249 l -10.903 3.326 C 18.247 16.061 18.149 16.075 18.052 16.075 z" style="stroke: none; stroke-width: 1; stroke-dasharray: none; stroke-linecap: butt; stroke-linejoin: miter; stroke-miterlimit: 10; fill: rgb(0,0,0); fill-rule: nonzero; opacity: 1;" transform=" matrix(1 0 0 1 0 0) " stroke-linecap="round"/>
</g>
</svg>